<?xml version="1.0" standalone="no"?>
<!DOCTYPE svg PUBLIC "-//W3C//DTD SVG 20010904//EN"
 "http://www.w3.org/TR/2001/REC-SVG-20010904/DTD/svg10.dtd">
<svg version="1.0" xmlns="http://www.w3.org/2000/svg"
 width="500.000000pt" height="500.000000pt" viewBox="0 0 500.000000 500.000000"
 preserveAspectRatio="xMidYMid meet">
<metadata>
Created by potrace 1.11, written by Peter Selinger 2001-2013
</metadata>
<g transform="translate(0.000000,500.000000) scale(0.100000,-0.100000)"
fill="#000000" stroke="none">
<path d="M778 3485 c-1 -2 -22 -6 -45 -10 -24 -3 -66 -16 -95 -29 -206 -92
-262 -394 -105 -572 62 -72 201 -142 322 -163 125 -22 157 -24 166 -9 18 27 8
35 -53 42 -92 9 -201 44 -241 77 -66 54 -86 141 -47 204 46 75 137 78 335 13
186 -61 234 -71 335 -71 123 0 182 20 420 137 181 90 375 171 317 133 -305
-198 -399 -270 -532 -408 -83 -86 -196 -241 -227 -310 l-13 -29 -192 0 c-121
0 -193 -4 -194 -10 -6 -47 -15 -45 161 -46 91 -1 173 -2 182 -3 15 -1 14 -7
-7 -58 -22 -54 -80 -236 -90 -279 -11 -53 -198 -691 -224 -766 -70 -204 -148
-286 -265 -276 l-39 3 52 34 c29 18 64 52 79 75 23 35 27 52 27 112 0 62 -3
75 -29 108 -79 104 -318 122 -430 33 -52 -42 -85 -113 -81 -181 5 -97 62 -162
175 -197 84 -26 149 -33 295 -33 364 1 619 144 780 437 l37 67 46 1 c26 1 139
2 251 3 203 1 204 1 207 24 2 12 1 22 -4 23 -170 19 -227 76 -223 222 1 30 6
39 25 47 14 5 33 21 42 36 15 23 16 31 5 67 -25 86 -26 82 11 82 30 0 33 3 36
33 2 24 -2 37 -18 50 l-21 17 40 154 c22 85 45 158 52 161 6 4 24 6 41 5 23
-2 31 2 39 22 13 34 14 33 -32 33 -47 0 -46 -11 -9 125 12 44 23 88 25 97 11
49 89 337 92 335 2 -2 31 -189 49 -317 6 -40 9 -57 24 -155 6 -38 13 -86 16
-105 2 -19 9 -60 14 -90 5 -30 12 -73 15 -95 3 -22 7 -49 9 -60 2 -11 7 -44
11 -73 7 -52 7 -52 -17 -43 -46 17 -88 -6 -107 -60 -14 -40 -5 -36 15 7 10 21
20 32 26 26 6 -6 -3 -46 -21 -103 -17 -52 -31 -104 -31 -116 0 -28 33 -46 69
-38 28 6 74 47 84 75 2 8 5 0 4 -18 0 -17 7 -40 15 -50 9 -9 18 -35 21 -57 4
-36 21 -141 31 -205 3 -14 5 -35 5 -47 1 -25 32 -39 56 -25 9 4 62 80 118 168
95 149 104 159 132 158 34 -1 85 43 85 73 0 12 -7 7 -22 -17 -20 -31 -23 -33
-26 -14 -5 34 30 112 98 217 44 68 66 95 74 87 16 -16 71 -12 89 8 31 34 17
66 -30 74 -21 3 -7 27 143 263 92 143 230 360 308 482 77 122 142 220 144 218
2 -2 -31 -126 -149 -565 -11 -41 -34 -124 -50 -185 -16 -60 -38 -144 -50 -185
-11 -41 -22 -82 -24 -90 -12 -56 -27 -100 -33 -100 -5 0 -13 5 -19 11 -17 17
-104 14 -139 -4 -64 -33 -104 -106 -104 -187 1 -44 19 -68 61 -81 37 -10 79
-4 120 17 l26 13 -23 -80 c-45 -155 -91 -201 -213 -213 -60 -5 -56 -4 -65 -32
l-6 -21 490 0 c476 0 490 0 496 19 8 26 4 28 -52 35 -77 8 -111 26 -119 63
-11 52 -2 99 85 420 17 63 33 123 35 132 2 10 20 77 39 150 20 73 79 295 131
493 53 198 108 385 123 415 35 71 73 96 160 106 67 7 82 15 82 45 0 14 -17 16
-142 13 -79 -1 -249 -3 -378 -4 l-235 0 -68 -108 c-38 -59 -81 -127 -97 -152
-15 -25 -79 -125 -142 -222 -62 -98 -162 -255 -223 -350 -188 -297 -245 -383
-246 -373 -2 21 -7 62 -13 105 -3 25 -8 62 -11 83 -3 20 -7 54 -10 75 -3 20
-7 55 -10 77 -2 22 -16 130 -30 240 -14 110 -28 218 -30 240 -6 47 -25 189
-30 225 -5 38 -18 144 -19 155 -1 6 -51 9 -137 7 l-136 -4 5 30 c3 24 -1 33
-18 42 -30 16 -64 5 -108 -35 l-38 -34 -137 3 c-107 3 -137 1 -137 -9 0 -8 -3
-20 -6 -28 -4 -11 7 -15 48 -19 55 -5 109 -25 115 -44 2 -6 -23 -19 -57 -28
-113 -32 -213 -44 -340 -42 -150 3 -183 13 -410 123 -226 109 -280 125 -422
129 -64 1 -118 1 -120 -1z m1345 -337 c-7 -29 -15 -64 -18 -78 -3 -14 -9 -41
-15 -60 -10 -31 -55 -199 -65 -240 -8 -32 -66 -246 -71 -262 -4 -15 -17 -18
-70 -18 l-64 0 6 28 c33 138 143 424 210 544 32 58 89 138 98 138 2 0 -3 -24
-11 -52z m-193 -723 c0 -5 -14 -62 -31 -125 -16 -63 -35 -132 -40 -152 -7 -28
-15 -38 -30 -38 -33 0 -56 -18 -68 -52 -10 -28 -8 -39 14 -81 22 -44 24 -52
13 -93 -7 -24 -15 -44 -19 -44 -4 0 -4 12 0 28 16 54 -18 91 -53 57 -28 -28 1
-95 41 -95 18 0 17 -4 -22 -84 -39 -80 -78 -127 -126 -151 -28 -15 -31 -15
-26 -1 8 19 128 476 142 536 2 8 13 53 25 100 12 47 23 90 24 95 1 6 8 33 15
60 l14 50 63 0 c37 0 64 -4 64 -10z m1250 -355 c0 -74 -57 -228 -86 -233 -18
-4 -15 76 5 142 30 100 81 157 81 91z m-861 -95 c1 -33 -36 -106 -58 -113 -10
-3 -12 1 -8 14 3 11 16 54 29 97 23 79 35 80 37 2z"/>
<path d="M2043 2153 c-7 -31 -14 -39 -38 -44 -21 -5 -23 -7 -9 -8 11 0 23 -3
26 -6 3 -3 -8 -49 -23 -101 -16 -53 -29 -107 -29 -120 0 -33 41 -58 79 -49 33
7 71 47 71 74 0 9 -8 2 -20 -16 -20 -33 -40 -43 -40 -20 0 6 14 63 32 125 30
107 33 113 54 108 13 -4 26 -2 29 4 4 6 -5 10 -20 10 -28 0 -29 11 -9 64 5 13
-2 16 -44 16 -50 0 -50 0 -59 -37z"/>
<path d="M2882 2113 c-12 -3 -26 -13 -32 -23 -8 -15 -6 -17 9 -13 17 4 17 -2
-10 -84 -45 -134 -42 -160 20 -168 39 -5 76 26 85 70 5 30 5 30 -7 5 -19 -40
-28 -51 -37 -45 -5 3 5 45 21 93 37 110 42 137 26 150 -17 13 -48 20 -75 15z"/>
<path d="M2827 2053 c-4 -3 -7 -13 -7 -22 1 -13 3 -13 11 2 11 19 8 33 -4 20z"/>
</g>
</svg>
